<svg xmlns="http://www.w3.org/2000/svg" viewBox="0 0 177 39" width="177" height="39">
	<style>
		tspan { white-space:pre }
	</style>
	<g >
		<path fill="#ffffff" d="M52.52 27.78L39.19 27.78L46.12 20.85L49.15 20.85L55.79 14.16L55.79 24.51L52.52 27.78ZM55.79 12.45L48.86 19.43L48.86 2.78L55.79 2.78L55.79 12.45Z" />
		<path fill="#ffffff" d="M9.7 2.73L0.23 2.73L0.23 28L9.7 28C17.76 28 22.95 22.85 22.95 15.36C22.95 7.84 17.76 2.73 9.7 2.73ZM6.39 22.67L6.39 7.98L9.3 7.98C13.95 7.98 16.68 10.72 16.68 15.36C16.68 20.01 13.95 22.67 9.3 22.67ZM32.56 18.68C32.56 15.22 34.25 14.21 37.17 14.21L38.86 14.21L38.86 7.7C36.16 7.7 33.96 9.14 32.56 11.26L32.56 7.91L26.4 7.91L26.4 28L32.56 28Z" />
		<path fill="#ffffff" d="M65.53 25.19C65.53 23.21 64 21.67 61.75 21.67C59.46 21.67 57.92 23.21 57.92 25.19C57.92 27.11 59.46 28.64 61.75 28.64C64 28.64 65.53 27.11 65.53 25.19ZM88.45 20.51C88.45 11.69 75.43 13.76 75.43 9.18C75.43 7.53 76.6 6.74 78.13 6.78C79.86 6.82 81.06 7.83 81.17 9.52L88.11 9.52C87.85 4.49 83.98 1.64 78.25 1.64C72.73 1.64 68.65 4.42 68.65 9.41C68.57 18.74 81.73 16.12 81.73 20.99C81.73 22.53 80.53 23.47 78.66 23.47C76.86 23.47 75.58 22.49 75.4 20.47L68.57 20.47C68.76 25.79 73.18 28.61 78.85 28.61C85 28.61 88.45 24.93 88.45 20.51ZM102.02 20.51L97.18 7.42L90.02 7.42L98.53 27.63L93.73 38.28L100.63 38.28L113.76 7.42L106.82 7.42ZM116.08 28.34L122.5 28.34L122.5 19.57L128.87 28.34L136.82 28.34L128.05 17.92L136.75 7.42L128.83 7.42L122.5 15.93L122.5 0.59L116.08 0.59ZM159.92 7.42L153.51 7.42L153.51 18.78C153.51 21.63 151.93 23.21 149.46 23.21C147.06 23.21 145.45 21.63 145.45 18.78L145.45 7.42L139.07 7.42L139.07 19.64C139.07 25.23 142.33 28.57 147.17 28.57C149.98 28.57 152.23 27.29 153.51 25.49L153.51 28.34L159.92 28.34ZM165.55 21.07C165.55 26.51 168.58 28.34 172.93 28.34L176.2 28.34L176.2 22.91L173.91 22.91C172.48 22.91 171.96 22.38 171.96 21.14L171.96 12.74L176.16 12.74L176.16 7.42L171.96 7.42L171.96 2.32L165.55 2.32L165.55 7.42L163 7.42L163 12.74L165.55 12.74Z" />
	</g>
</svg>